<svg width="46" height="45" viewBox="0 0 46 45" fill="none" xmlns="http://www.w3.org/2000/svg">
<path d="M23 0C35.7075 0 46 10.3234 46 23.0691C45.9988 27.9027 44.4863 32.6142 41.6755 36.5404C38.8648 40.4666 34.8972 43.4099 30.3313 44.9559C29.1813 45.1866 28.75 44.4657 28.75 43.8601C28.75 43.0816 28.7788 40.6016 28.7788 37.5161C28.7788 35.3534 28.06 33.9693 27.2263 33.2484C32.3438 32.6716 37.72 30.7108 37.72 21.858C37.72 19.3204 36.8288 17.273 35.3625 15.6582C35.5925 15.0814 36.3975 12.7168 35.1325 9.54484C35.1325 9.54484 33.2063 8.91044 28.8075 11.9094C26.9675 11.3904 25.0125 11.1308 23.0575 11.1308C21.1025 11.1308 19.1475 11.3904 17.3075 11.9094C12.9088 8.93928 10.9825 9.54484 10.9825 9.54484C9.7175 12.7168 10.5225 15.0814 10.7525 15.6582C9.28625 17.273 8.395 19.3492 8.395 21.858C8.395 30.6819 13.7425 32.6716 18.86 33.2484C18.1988 33.8251 17.595 34.8344 17.3938 36.3339C16.0713 36.9394 12.765 37.9198 10.695 34.4306C10.2638 33.7386 8.97 32.0372 7.15875 32.0661C5.2325 32.0949 6.3825 33.1618 7.1875 33.5944C8.165 34.1423 9.28625 36.1897 9.545 36.8529C10.005 38.1505 11.5 40.6305 17.2788 39.5635C17.2788 41.4956 17.3075 43.3123 17.3075 43.8601C17.3075 44.4657 16.8763 45.1578 15.7263 44.9559C11.1453 43.4266 7.16086 40.4892 4.33806 36.5606C1.51526 32.632 -0.00253138 27.9116 3.16915e-06 23.0691C3.16915e-06 10.3234 10.2925 0 23 0Z" fill="white"/>
</svg>
