<svg width="161" height="31" viewBox="0 0 161 31" fill="none" xmlns="http://www.w3.org/2000/svg">
<path d="M0.588 30V1.53H6.126V30H0.588ZM12.8017 30V8.823H17.0917V17.91H16.7017C16.7017 15.752 16.9877 13.958 17.5597 12.528C18.1317 11.072 18.9767 9.98 20.0947 9.252C21.2387 8.524 22.6557 8.16 24.3457 8.16H24.5797C27.1017 8.16 29.0127 8.979 30.3127 10.617C31.6127 12.229 32.2627 14.647 32.2627 17.871V30H26.8417V17.403C26.8417 16.103 26.4647 15.05 25.7107 14.244C24.9827 13.438 23.9687 13.035 22.6687 13.035C21.3427 13.035 20.2637 13.451 19.4317 14.283C18.6257 15.089 18.2227 16.181 18.2227 17.559V30H12.8017ZM42.1894 30L35.5594 8.823H41.1364L47.4934 30H42.1894ZM43.7884 30V25.554H49.5214V30H43.7884ZM45.9334 30L51.3934 8.823H56.6194L50.8864 30H45.9334ZM61.7278 30V8.823H67.1488V30H61.7278ZM58.7638 12.879V8.823H67.1488V12.879H58.7638ZM63.7168 6.288C62.6508 6.288 61.8578 6.015 61.3378 5.469C60.8438 4.897 60.5968 4.195 60.5968 3.363C60.5968 2.479 60.8438 1.764 61.3378 1.218C61.8578 0.671998 62.6508 0.398998 63.7168 0.398998C64.7828 0.398998 65.5628 0.671998 66.0568 1.218C66.5508 1.764 66.7978 2.479 66.7978 3.363C66.7978 4.195 66.5508 4.897 66.0568 5.469C65.5628 6.015 64.7828 6.288 63.7168 6.288ZM81.0794 30.663C78.1674 30.663 75.8794 30.052 74.2154 28.83C72.5774 27.582 71.7194 25.866 71.6414 23.682H76.5164C76.5944 24.41 76.9974 25.073 77.7254 25.671C78.4534 26.269 79.5974 26.568 81.1574 26.568C82.4574 26.568 83.4844 26.334 84.2384 25.866C85.0184 25.398 85.4084 24.761 85.4084 23.955C85.4084 23.253 85.1094 22.694 84.5114 22.278C83.9394 21.862 82.9514 21.589 81.5474 21.459L79.6754 21.264C77.3094 21.004 75.4894 20.328 74.2154 19.236C72.9414 18.144 72.3044 16.688 72.3044 14.868C72.3044 13.412 72.6684 12.19 73.3964 11.202C74.1244 10.214 75.1254 9.473 76.3994 8.979C77.6994 8.459 79.1814 8.199 80.8454 8.199C83.4454 8.199 85.5514 8.771 87.1634 9.915C88.7754 11.059 89.6204 12.736 89.6984 14.946H84.8234C84.7714 14.218 84.4074 13.594 83.7314 13.074C83.0554 12.554 82.0804 12.294 80.8064 12.294C79.6624 12.294 78.7784 12.515 78.1544 12.957C77.5304 13.399 77.2184 13.971 77.2184 14.673C77.2184 15.349 77.4654 15.869 77.9594 16.233C78.4794 16.597 79.3114 16.844 80.4554 16.974L82.3274 17.169C84.8234 17.429 86.7734 18.118 88.1774 19.236C89.6074 20.354 90.3224 21.862 90.3224 23.76C90.3224 25.164 89.9324 26.386 89.1524 27.426C88.3984 28.44 87.3324 29.233 85.9544 29.805C84.5764 30.377 82.9514 30.663 81.0794 30.663ZM104.005 30.273C102.055 30.273 100.443 30.026 99.1687 29.532C97.9207 29.012 96.9847 28.154 96.3607 26.958C95.7367 25.736 95.4247 24.098 95.4247 22.044L95.4637 2.856H100.534L100.495 22.395C100.495 23.435 100.768 24.241 101.314 24.813C101.886 25.359 102.692 25.632 103.732 25.632H107.047V30.273H104.005ZM92.0707 12.801V8.823H107.047V12.801H92.0707ZM124.351 30V23.721H123.454V16.74C123.454 15.518 123.155 14.608 122.557 14.01C121.959 13.412 121.036 13.113 119.788 13.113C119.138 13.113 118.358 13.126 117.448 13.152C116.538 13.178 115.615 13.217 114.679 13.269C113.769 13.295 112.95 13.334 112.222 13.386V8.784C112.82 8.732 113.496 8.68 114.25 8.628C115.004 8.576 115.771 8.55 116.551 8.55C117.357 8.524 118.111 8.511 118.813 8.511C120.997 8.511 122.804 8.797 124.234 9.369C125.69 9.941 126.782 10.838 127.51 12.06C128.264 13.282 128.641 14.881 128.641 16.857V30H124.351ZM117.526 30.546C115.992 30.546 114.64 30.273 113.47 29.727C112.326 29.181 111.429 28.401 110.779 27.387C110.155 26.373 109.843 25.151 109.843 23.721C109.843 22.161 110.22 20.887 110.974 19.899C111.754 18.911 112.833 18.17 114.211 17.676C115.615 17.182 117.253 16.935 119.125 16.935H124.039V20.172H119.047C117.799 20.172 116.837 20.484 116.161 21.108C115.511 21.706 115.186 22.486 115.186 23.448C115.186 24.41 115.511 25.19 116.161 25.788C116.837 26.386 117.799 26.685 119.047 26.685C119.801 26.685 120.49 26.555 121.114 26.295C121.764 26.009 122.297 25.541 122.713 24.891C123.155 24.215 123.402 23.305 123.454 22.161L124.78 23.682C124.65 25.164 124.286 26.412 123.688 27.426C123.116 28.44 122.31 29.22 121.27 29.766C120.256 30.286 119.008 30.546 117.526 30.546ZM148.988 26.217V6.951H153.746V26.217H148.988ZM141.929 18.768V14.4H160.805V18.768H141.929Z" fill="white"/>
</svg>
